<?xml version="1.0" encoding="UTF-8"?>
<svg id="Layer_2" data-name="Layer 2" xmlns="http://www.w3.org/2000/svg" width="310.5" height="65.3" viewBox="0 0 310.5 65.3">
  <defs>
    <style>
      .cls-1 {
        fill: #00c1de;
      }

      .cls-2 {
        fill: #002a3a;
      }
    </style>
  </defs>
  <g id="Layer_1-2" data-name="Layer 1">
    <g>
      <g>
        <path class="cls-2" d="m25.4,65l-2.2-6.6h-13.3l-2.3,6.6H0L13.6,27.6h5.7l13.6,37.4h-7.5Zm-8.7-26.4l-4.7,13.6h9.3l-4.6-13.6Z"/>
        <path class="cls-2" d="m64,54c0,1.8-.4,3.4-1.1,4.8-.7,1.4-1.7,2.6-2.9,3.5-1.2,1-2.7,1.7-4.4,2.2-1.7.5-3.5.8-5.5.8-2.8,0-5.4-.4-7.6-1.1-2.2-.7-4.2-2-6.1-3.9l4.7-4.7c1.2,1.2,2.6,2,4.1,2.5s3.2.7,4.9.7c2.2,0,3.9-.4,5-1.2s1.7-2,1.7-3.5c0-1.3-.4-2.3-1.2-3.1-.4-.3-.8-.6-1.3-.8s-1.2-.3-2.1-.5l-4.5-.7c-1.7-.2-3.1-.6-4.3-1.1-1.2-.5-2.2-1.2-3-2-1.8-1.7-2.7-4.2-2.7-7.3,0-1.7.3-3.2.9-4.6.6-1.4,1.5-2.6,2.6-3.6s2.5-1.8,4.1-2.3c1.6-.6,3.4-.8,5.5-.8,2.6,0,4.8.3,6.8,1,1.9.7,3.7,1.8,5.3,3.4l-4.6,4.6c-1.2-1.1-2.4-1.8-3.8-2.1s-2.7-.4-3.9-.4c-2,0-3.4.5-4.3,1.4s-1.4,2-1.4,3.3c0,.5.1,1,.2,1.4.2.5.4.9.8,1.3.4.4.8.6,1.4.9.5.2,1.2.4,2,.5l4.5.7c1.7.2,3.1.6,4.3,1.1,1.1.5,2.1,1.1,2.9,1.9,1,.9,1.7,2,2.2,3.4.5,1.1.8,2.6.8,4.3Z"/>
        <path class="cls-2" d="m97.6,53.5c-.7,3.9-2.3,6.9-4.8,8.8-2.5,2-5.5,3-8.9,3-2.2,0-4.1-.3-5.7-1s-3.1-1.7-4.4-2.9c-.9-.9-1.7-1.9-2.2-2.9s-.9-2.1-1.1-3.3-.4-2.5-.4-4c-.1-1.4-.1-3-.1-4.8s0-3.4.1-4.8c.1-1.4.2-2.8.4-4,.2-1.2.6-2.3,1.1-3.3s1.2-2,2.2-2.9c1.3-1.3,2.7-2.2,4.4-2.9,1.6-.7,3.5-1,5.7-1,3.5,0,6.5,1,8.9,3,2.5,2,4.1,4.9,4.8,8.8h-7.5c-.4-1.5-1.1-2.8-2-3.8-1-1-2.4-1.5-4.2-1.5-1,0-1.9.2-2.7.5-.8.4-1.4.8-2,1.4-.4.4-.6.8-.9,1.3-.2.5-.4,1.1-.6,1.9-.1.8-.2,1.7-.3,2.9-.1,1.2-.1,2.7-.1,4.4s0,3.3.1,4.4c.1,1.2.2,2.1.3,2.9.1.8.3,1.4.6,1.9s.5.9.9,1.3c.5.6,1.2,1.1,2,1.4.8.4,1.7.5,2.7.5,1.8,0,3.2-.5,4.2-1.5s1.7-2.3,2.1-3.8h7.4Z"/>
        <path class="cls-2" d="m104.1,65V27.6h24.6v6.5h-17.3v8.8h14.7v6.5h-14.7v9.1h17.3v6.5h-24.6Z"/>
        <path class="cls-2" d="m158.1,65l-14.8-22.9v22.9h-7.3V27.6h6.5l14.8,22.9v-22.9h7.3v37.4h-6.5Z"/>
        <path class="cls-2" d="m188,34.1v30.9h-7.3v-30.9h-9.8v-6.5h26.8v6.5h-9.7Z"/>
        <path class="cls-2" d="m204.1,65V27.6h7.3v37.4h-7.3Z"/>
        <path class="cls-2" d="m227.3,34.1v9.2h14.7v6.5h-14.7v15.2h-7.3V27.6h24.6v6.5h-17.3Z"/>
        <path class="cls-2" d="m267.7,49.7v15.3h-7.2v-15.3l-11.2-22h7.9l7,15.1,6.9-15.1h7.9l-11.3,22Z"/>
      </g>
      <g>
        <path class="cls-1" d="m267.1,5c0-2.8,2.2-5,5-5s5,2.2,5,5-2.2,5-5,5-5-2.3-5-5"/>
        <path class="cls-1" d="m287.2,6.7c0-2.8,2.2-5,5-5s5,2.2,5,5-2.2,5-5,5-5-2.3-5-5"/>
        <path class="cls-1" d="m300.5,22c0-2.8,2.2-5,5-5s5,2.2,5,5-2.2,5-5,5-5-2.3-5-5"/>
      </g>
    </g>
  </g>
</svg>